<?xml version="1.0" encoding="UTF-8" standalone="no"?>
<svg width="78px" height="78px" viewBox="0 0 78 78" version="1.1" xmlns="http://www.w3.org/2000/svg" xmlns:xlink="http://www.w3.org/1999/xlink" xmlns:sketch="http://www.bohemiancoding.com/sketch/ns">
    <!-- Generator: Sketch 3.5.1 (25234) - http://www.bohemiancoding.com/sketch -->
    <title>chuck-flores-square-logo</title>
    <desc>Created with Sketch.</desc>
    <defs></defs>
    <g id="Page-1" stroke="none" stroke-width="1" fill="none" fill-rule="evenodd" sketch:type="MSPage">
        <g id="desktop" sketch:type="MSArtboardGroup" transform="translate(-1178.000000, -935.000000)" fill="#F86E40">
            <g id="square-logo-copy-2" sketch:type="MSLayerGroup" transform="translate(1178.000000, 935.000000)">
                <path d="M78,30.2154291 L78,0 L24.1833682,0 C26.6713694,0.469351956 28.7193278,1.14207565 30.89,1.643 L30.89,8.459 C27.553,5.69 23.293,4.625 18.465,4.625 C10.2817468,4.625 3.27746602,9.26720386 -1.27553523e-12,16.0037692 L-1.42108547e-14,33.3005832 C3.28080088,40.0594749 10.3003007,44.74 18.536,44.74 C23.648,44.74 28.192,43.533 31.387,40.764 L31.387,47.438 C27.198,48.716 23.506,49.781 18.11,49.781 C10.9462256,49.781 4.61780177,47.1245851 -1.19904087e-14,42.8085922 L-1.42108547e-14,78 L57.1659016,78 C57.2878312,75.3676172 57.396,70.5048021 57.396,66.291 L57.396,43.074 C57.396,38.175 57.254,32.495 57.112,30.365 L69.253,30.365 C72.5488395,30.365 75.6518703,30.3007304 78,30.2154291 Z M78,35.2400233 L78,51.7846229 C75.9346224,51.9086917 73.1503529,52.02 69.253,52.02 L63.147,52.02 L63.147,35.122 L69.253,35.122 C72.5488395,35.122 75.6518703,35.1541348 78,35.2400233 Z M78,57.0642365 L78,78 L63.3298944,78 C63.2551688,75.3676172 63.147,70.5048021 63.147,66.291 L63.147,56.848 L69.253,56.848 C73.1503529,56.848 75.9346224,56.9036542 78,57.0642365 Z M12.524355,0 L-1.42108547e-14,0 L-1.42108547e-14,6.42251217 C3.37495195,3.26221617 7.66363556,0.992715535 12.524355,-7.21644966e-16 Z M3.9535,66.465 C3.9755,66.762 3.9975,67.653 3.9975,68.434 L3.9975,70.953 C3.9975,72.922 5.1965,74.121 6.8795,74.121 C8.5625,74.121 9.7615,72.911 9.7615,70.953 L9.7615,68.434 C9.7615,67.829 9.7725,66.949 9.7945,66.465 L8.8265,66.465 C8.8595,66.927 8.8595,67.807 8.8595,68.434 L8.8595,70.975 C8.8595,72.394 8.0455,73.34 6.8795,73.34 C5.7135,73.34 4.8885,72.394 4.8885,70.975 L4.8885,68.434 C4.8885,67.653 4.9105,66.762 4.9325,66.465 L3.9535,66.465 Z M11.6755,74 C11.8295,73.681 12.0055,73.384 12.3025,72.845 L13.4245,70.942 L14.4585,72.702 C14.7885,73.241 15.0305,73.692 15.2065,74 L16.3615,74 C16.0315,73.56 15.6135,72.933 15.2175,72.295 L13.9195,70.15 L15.1845,68.082 C15.5365,67.51 15.9325,66.894 16.2625,66.465 L15.1845,66.465 C14.9975,66.795 14.7775,67.213 14.4915,67.708 L13.4795,69.435 L12.4675,67.719 C12.1485,67.202 11.9395,66.817 11.7635,66.465 L10.6085,66.465 C10.9275,66.883 11.3235,67.488 11.6975,68.115 L12.9845,70.227 L11.6645,72.405 C11.2795,73.021 10.9165,73.56 10.5865,74 L11.6755,74 Z M21.6525,74 C23.7315,74 25.4365,72.306 25.4365,70.227 C25.4365,68.148 23.7315,66.465 21.6525,66.465 L19.5295,66.465 C19.5625,66.795 19.5845,67.686 19.5845,68.434 L19.5845,72.031 C19.5845,72.779 19.5625,73.659 19.5295,74 L21.6525,74 Z M20.4755,67.202 L21.5865,67.202 C23.2255,67.202 24.5235,68.577 24.5235,70.227 C24.5235,71.877 23.2255,73.263 21.5975,73.263 L20.4755,73.263 L20.4755,67.202 Z M27.6585,70.348 L28.5275,70.348 C29.2755,70.348 29.9025,70.359 30.2435,70.381 L30.2435,69.567 C29.9025,69.589 29.2755,69.6 28.5275,69.6 L27.6585,69.6 L27.6585,67.202 L28.5385,67.202 C29.2975,67.202 30.0565,67.213 30.3975,67.246 L30.3975,66.421 C30.0565,66.443 29.2975,66.465 28.5385,66.465 L26.7235,66.465 C26.7455,66.795 26.7675,67.664 26.7675,68.423 L26.7675,72.031 C26.7675,72.526 26.7455,73.395 26.7235,74 L28.6265,74 C29.3855,74 30.1555,74.011 30.4855,74.033 L30.4855,73.219 C30.1555,73.241 29.3855,73.252 28.6265,73.252 L27.6585,73.252 L27.6585,70.348 Z M32.7075,68.225 C32.7075,67.444 33.2355,67.004 33.9725,67.004 C34.6105,67.004 35.1605,67.224 35.3585,67.708 L35.3585,66.52 C34.8965,66.465 34.5445,66.311 33.9725,66.311 C32.7075,66.311 31.7945,67.048 31.7945,68.335 C31.7945,70.513 34.5995,70.502 34.5995,72.13 C34.5995,72.9 34.1155,73.45 33.3015,73.45 C32.5535,73.45 31.8385,73.098 31.5635,72.636 L31.5635,73.89 C32.1355,73.978 32.5645,74.165 33.2795,74.165 C34.6325,74.165 35.5565,73.285 35.5565,72.02 C35.5565,69.842 32.7075,69.809 32.7075,68.225 Z M37.9215,68.434 C37.9215,67.686 37.9435,66.795 37.9655,66.465 L36.9865,66.465 C37.0085,66.795 37.0305,67.686 37.0305,68.434 L37.0305,72.031 C37.0305,72.779 37.0085,73.659 36.9865,74 L37.9655,74 C37.9435,73.659 37.9215,72.779 37.9215,72.031 L37.9215,68.434 Z M45.3905,71.888 C45.3905,71.14 45.4125,70.832 45.4345,70.502 L44.4885,70.502 C44.5105,70.832 44.5325,71.118 44.5325,71.888 L44.5325,73.131 C44.2795,73.285 43.8285,73.351 43.3335,73.351 C41.5405,73.351 40.1985,71.965 40.1985,70.227 C40.1985,68.5 41.5075,67.114 43.3445,67.114 C44.0925,67.114 44.7085,67.268 45.2475,67.719 L45.2475,66.685 C44.6425,66.465 44.1145,66.322 43.3115,66.322 C40.9355,66.322 39.2855,68.082 39.2855,70.227 C39.2855,72.383 40.9575,74.132 43.3335,74.132 C44.2465,74.132 44.7195,73.978 45.3905,73.758 L45.3905,71.888 Z M47.8875,74 C47.8655,73.692 47.8435,72.988 47.8435,72.416 L47.8655,68.225 L52.0125,73.153 C52.3645,73.56 52.5515,73.78 52.8265,74.132 L53.0245,74.132 C52.9915,73.494 52.9915,72.999 52.9915,72.537 L52.9915,68.434 C52.9915,67.829 53.0025,66.949 53.0245,66.465 L52.1005,66.465 C52.1115,66.927 52.1335,67.807 52.1335,68.434 L52.1335,72.185 L48.0635,67.345 C47.6895,66.927 47.4915,66.707 47.1615,66.3 L46.9525,66.3 C46.9745,66.894 46.9965,67.763 46.9965,68.423 L46.9965,72.405 C46.9965,72.988 46.9745,73.692 46.9525,74 L47.8875,74 Z" id="chuck-flores-square-logo" sketch:type="MSShapeGroup"></path>
            </g>
        </g>
    </g>
</svg>