<?xml version="1.0" encoding="UTF-8" standalone="no"?>
<svg width="1280px" height="629px" viewBox="0 0 1280 629" version="1.1" xmlns="http://www.w3.org/2000/svg" xmlns:xlink="http://www.w3.org/1999/xlink" xmlns:sketch="http://www.bohemiancoding.com/sketch/ns">
    <!-- Generator: Sketch 3.4 (15575) - http://www.bohemiancoding.com/sketch -->
    <title>block-1__user-journey--img</title>
    <desc>Created with Sketch.</desc>
    <defs></defs>
    <g id="Page-1" stroke="none" stroke-width="1" fill="none" fill-rule="evenodd" sketch:type="MSPage">
        <g id="okmyoutfit" sketch:type="MSArtboardGroup" transform="translate(0.000000, -1282.000000)" fill="#0634A8" opacity="0.4">
            <g id="w-block-1" sketch:type="MSLayerGroup" transform="translate(0.000000, 1041.000000)">
                <g id="block-1__diagram" transform="translate(0.000000, 241.000000)" sketch:type="MSShapeGroup">
                    <g id="block-1__user-journey--img">
                        <path d="M0.046156731,256.765559 C0.046156731,256.765559 27.2370869,251.250192 46.3367422,305.074302 C65.4363975,358.898412 76.6386361,467.500244 131.588224,460.393994 C192.745893,452.480842 244.081409,102.619544 297.452437,103.843653 C325.543423,103.233891 343.516854,178.463858 364.864342,176.629987 C386.211831,174.796116 383.400886,142.987626 394.076938,143.597388 C404.748374,144.20715 400.81582,191.305539 414.298201,190.695777 C427.780582,190.08143 426.658974,157.667762 436.771914,157.667762 C446.884853,157.667762 440.704467,198.645607 451.380519,198.645607 C462.056571,198.645607 461.488843,153.995436 470.480174,153.995436 C479.471505,153.995436 480.030002,188.861906 491.827662,188.861906 C503.625323,188.861906 500.685139,164.966568 520.481761,169.285334 C543.412425,174.287217 571.604956,298.343996 616.543149,294.676254 C642.944799,292.842383 636.205917,268.378546 647.440465,268.983724 C658.679629,269.59807 655.864068,315.47235 666.54012,315.47235 C677.216172,315.47235 673.283619,274.494506 682.270334,274.494506 C691.25705,274.494506 691.25705,305.074302 698.559045,305.074302 C705.865655,305.074302 708.108872,256.75639 719.911148,256.75639 C731.708809,256.75639 723.28059,311.194846 737.889195,311.194846 C752.4978,311.194846 754.182521,287.950533 783.3905,287.950533 C812.59848,287.950533 844.340464,330.459659 882.825946,390.09714 C907.53826,430.469807 1027.75808,438.717641 1066.5205,451.261318 C1103.03971,460.435257 1274.94122,539.030377 1280,628.02813 L1.02318154e-12,627.569662 L0.046156731,256.765559 L0.046156731,256.765559 Z" id="Shape"></path>
                        <path d="M1280,376.571193 C1279.79685,376.561982 1279.59831,376.552771 1279.39054,376.54356 L1279.39054,376.078409 L1271.00591,376.078409 C1178.37327,367.816227 1169.91476,261.987526 1163.21075,250.556793 C1155.21857,236.947679 1146.39532,245.426318 1139.85752,247.134941 C1133.31972,248.84817 1125.37833,219.76934 1117.90788,219.198264 C1110.44205,218.627188 1101.09706,253.978644 1094.55927,255.120796 C1088.02147,256.262949 1084.75257,215.776413 1079.15204,215.205337 C1073.5469,214.63426 1066.54739,239.153691 1060.93763,238.016145 C1055.33248,236.873992 1053.46718,216.347489 1048.7993,216.347489 C1044.12681,216.347489 1041.32424,235.165369 1037.12731,235.73184 C1032.92576,236.302916 1030.11857,235.73184 1025.91702,222.04904 C1017.04297,183.846808 1002.10207,195.820986 995.564277,203.802235 C989.02648,211.783485 978.748841,236.302916 927.697696,229.459213 C876.646551,222.620116 842.39699,123.027198 829.94932,85.7736903 C817.497033,48.5201824 778.888941,-47.0798075 733.442941,28.7581843 C695.038001,98.9959454 592.727942,212.736814 529.22451,224.139915 C465.721077,235.543016 395.984576,216.540918 355.51118,194.49001 C315.042401,172.443707 286.397986,153.437003 254.02758,169.399503 C221.64794,185.362002 117.200169,301.875353 85.9147787,321.457739 C54.6293885,341.030913 0,335.140539 0,335.140539 L0.0277025297,376.083015 L0.00461708828,376.083015 L0.00461708828,627.591399 L1279.39978,627.591399 L1279.39978,376.571193 L1280,376.571193 L1280,376.571193 Z" id="Shape"></path>
                        <path d="M0.221593061,310.572338 C0.221593061,310.572338 26.7204299,299.107141 70.8682308,303.121798 C115.006799,307.136454 233.743747,382.804 271.036012,381.086057 C291.556453,380.516472 285.337998,359.878199 300.258597,360.447784 C315.179197,361.021962 301.505058,408.031108 318.2815,406.308573 C335.071791,404.59063 329.481182,360.447784 343.769318,360.447784 C358.071304,360.447784 348.122699,387.967013 361.178223,385.674892 C374.233747,383.378178 372.368673,364.46244 381.070817,364.46244 C389.772961,364.46244 405.940021,401.724331 461.264422,363.318676 C516.598056,324.908428 537.732494,280.191403 586.224442,267.577849 C634.707157,254.968888 669.529584,271.018327 707.44508,246.36999 C745.369809,221.71706 800.69421,154.074234 818.726345,131.143839 C836.749247,108.213445 862.241682,107.065088 877.162282,127.703361 C892.082881,148.341635 948.035129,309.428575 956.114043,332.358969 C964.192956,355.289364 1017.03828,441.282936 1048.12133,469.371751 C1079.20899,497.460565 1146.44863,519.803001 1200.78971,529.844235 C1255.14003,539.88547 1250.16342,556.509087 1280,627.592391 L-1.13686838e-13,627.592391 L0.221593061,310.572338 L0.221593061,310.572338 Z" id="Shape"></path>
                    </g>
                </g>
            </g>
        </g>
    </g>
</svg>